<svg id="Capa_1" enable-background="new 0 0 512 512" height="512" viewBox="0 0 512 512" width="512" xmlns="http://www.w3.org/2000/svg"><g><path d="m69.914 318.091h372.74v93.18h-372.74z" fill="#eaf6ff"/><path d="m322.874 411.271h-133.18c0-36.72 29.87-66.59 66.59-66.59s66.59 29.87 66.59 66.59z" fill="#d8ecfe"/><path d="m225.224 318.091h62.12v93.18h-62.12z" fill="#f25a74"/><path d="m256.284 344.681c-11.21 0-21.782 2.784-31.06 7.697v58.893h62.12v-58.893c-9.278-4.913-19.85-7.697-31.06-7.697z" fill="#e83d5a"/><path d="m69.914 318.091h20v93.18h-20z" fill="#d8ecfe"/><path d="m225.222 442.335h62.124v62.124l-31.062-15.531-31.062 15.531z" fill="#f25a74"/><circle cx="256.284" cy="411.272" fill="#f9d264" r="46.593"/><path d="m229.691 411.272c0-22.3 15.666-40.941 36.593-45.517-3.221-.704-6.567-1.076-10-1.076-25.733 0-46.593 20.861-46.593 46.593s20.861 46.593 46.593 46.593c3.433 0 6.779-.371 10-1.076-20.927-4.576-36.593-23.216-36.593-45.517z" fill="#efc356"/><circle cx="256.284" cy="411.272" fill="#fff292" r="15.531"/><path d="m411.595 193.837h31.062v62.125h-31.062z" fill="#f25a74"/><path d="m380.533 224.899-124.249 62.124-124.249-62.124v-93.188h248.498z" fill="#365e7d"/><path d="m271.284 279.521-15 7.5-124.25-62.12v-93.19h30v93.19z" fill="#2b4d66"/><path d="m256.284 224.899-186.373-108.718 186.373-108.718 186.374 108.718z" fill="#46778c"/><path d="m132.03 116.181 124.254-72.482 124.254 72.482-124.254 72.482z" fill="#365e7d"/><g><path d="m442.369 310.63h-155.311-62.119-76.851c-4.143 0-7.5 3.358-7.5 7.5s3.357 7.5 7.5 7.5h69.351v47.793c-7.941 8.08-13.364 18.634-15.002 30.387h-125.309v-78.18h38.28c4.143 0 7.5-3.358 7.5-7.5s-3.357-7.5-7.5-7.5h-45.78c-4.143 0-7.5 3.358-7.5 7.5v93.18c0 4.142 3.357 7.5 7.5 7.5h132.808c1.638 11.754 7.061 22.309 15.002 30.39v55.3c0 2.599 1.346 5.013 3.557 6.38 2.212 1.367 4.974 1.491 7.298.328l27.705-13.853 27.705 13.853c1.059.529 2.208.792 3.354.792 1.371 0 2.738-.376 3.943-1.12 2.211-1.367 3.557-3.781 3.557-6.38v-55.3c7.941-8.081 13.365-18.635 15.002-30.39h65.178c4.143 0 7.5-3.358 7.5-7.5s-3.357-7.5-7.5-7.5h-65.177c-1.638-11.753-7.061-22.307-15.002-30.387v-47.793h140.311v78.18h-27.45c-4.143 0-7.5 3.358-7.5 7.5s3.357 7.5 7.5 7.5h34.95c4.143 0 7.5-3.358 7.5-7.5v-93.18c0-4.142-3.358-7.5-7.5-7.5zm-147.278 100.629c0 .017-.002.034-.002.051 0 .018.002.034.003.052-.028 21.533-17.553 39.043-39.093 39.043s-39.065-17.51-39.093-39.043c0-.017.003-.034.003-.052 0-.017-.002-.034-.003-.051.028-21.532 17.553-39.041 39.092-39.041s39.065 17.509 39.093 39.041zm-35.738 71.003c-2.111-1.056-4.598-1.056-6.709 0l-20.205 10.103v-32.368c7.126 3.462 15.119 5.408 23.56 5.408s16.434-1.946 23.56-5.408v32.368zm20.205-119.636c-7.126-3.462-15.119-5.408-23.56-5.408s-16.434 1.946-23.56 5.408v-36.996h47.119v36.996z"/><path d="m232.967 411.311c0 12.7 10.332 23.031 23.031 23.031s23.031-10.332 23.031-23.031-10.332-23.031-23.031-23.031-23.031 10.332-23.031 23.031zm31.063 0c0 4.428-3.603 8.031-8.031 8.031s-8.031-3.603-8.031-8.031 3.603-8.031 8.031-8.031 8.031 3.603 8.031 8.031z"/><path d="m442.372 186.375h-8.03v-56.789l11.807-6.887c2.304-1.344 3.721-3.811 3.721-6.479s-1.417-5.134-3.721-6.479l-81.43-47.5c-3.578-2.085-8.172-.878-10.258 2.7-2.087 3.578-.878 8.17 2.699 10.257l57.466 33.521h-32.345l-122.503-71.459c-2.336-1.362-5.223-1.362-7.559 0l-124.254 72.481c-2.304 1.344-3.721 3.811-3.721 6.479s1.417 5.134 3.721 6.479l124.254 72.482c1.168.681 2.474 1.021 3.779 1.021s2.611-.34 3.779-1.021l122.503-71.46h32.347l-158.63 92.538-171.484-100.039 171.486-100.038 72.921 42.536c3.578 2.086 8.171.878 10.258-2.7s.878-8.17-2.699-10.257l-76.7-44.74c-2.336-1.362-5.223-1.361-7.559 0l-186.37 108.72c-2.304 1.344-3.721 3.811-3.721 6.479s1.417 5.134 3.721 6.479l58.399 34.067v68.174c0 2.841 1.605 5.438 4.146 6.708l124.25 62.12c1.056.528 2.204.792 3.354.792s2.298-.264 3.354-.792l124.25-62.12c2.541-1.271 4.146-3.868 4.146-6.708v-68.174l31.593-18.43v48.039h-8.031c-4.143 0-7.5 3.358-7.5 7.5v62.125c0 4.142 3.357 7.5 7.5 7.5h31.062c4.143 0 7.5-3.358 7.5-7.5v-62.125c-.001-4.142-3.359-7.5-7.501-7.5zm-186.373-6.356-109.37-63.799 109.369-63.799 96.512 56.299h-96.512c-4.143 0-7.5 3.358-7.5 7.5s3.357 7.5 7.5 7.5h96.512zm116.75 40.286-116.75 58.37-116.75-58.37v-54.788l112.971 65.902c1.168.681 2.474 1.022 3.779 1.022s2.611-.341 3.779-1.022l112.971-65.902zm62.123 28.195h-16.062v-47.125h16.062z"/></g></g></svg>